<svg aria-hidden="true" style="position: absolute; width: 0; height: 0; overflow: hidden;" version="1.1" xmlns="http://www.w3.org/2000/svg" xmlns:xlink="http://www.w3.org/1999/xlink">

<defs>

<symbol id="_icon-logo" viewBox="0 0 40 32" fill="currentColor">
        <path d="M22.591 9.736l-0.756-0.577c-0.098-0.080-0.225-0.129-0.363-0.129-0.179 0-0.338 0.081-0.444 0.208l-0.001 0.001-10.462 12.014 0.162 0.179 2.591-2.389c-0.148-0.061-0.249-0.203-0.249-0.369 0-0.22 0.178-0.398 0.398-0.398 0.003 0 0.005 0 0.008 0h-0c0 0 0 0 0 0 0.176 0 0.324 0.115 0.374 0.274l0.001 0.003 3.416-3.168c0.050-0.041 0.114-0.065 0.185-0.065s0.135 0.025 0.185 0.066l-0.001-0 0.173 0.127c0.047 0.034 0.105 0.054 0.168 0.054 0.087 0 0.165-0.039 0.218-0.1l0-0 4.466-5.009c0.082-0.086 0.133-0.202 0.133-0.331 0-0.161-0.079-0.303-0.2-0.39l-0.001-0.001z"></path>
        <path d="M27.507 13.118c-2.161 1.554-4.685 2.772-7.407 3.511l-0.164 0.038c-2.425 0.645-5.244 1.083-8.142 1.22l-0.092 0.003c0.056 0.41 0.157 0.812 0.3 1.2 1.57 1.419 13.387-1.004 15.695-3.808 0.49-0.583-0.19-2.164-0.19-2.164zM13.474 19.044c-0.217 0-0.392-0.176-0.392-0.392s0.176-0.392 0.392-0.392c0.217 0 0.392 0.176 0.392 0.392v0c0 0.002 0 0.004 0 0.006 0 0.214-0.173 0.387-0.387 0.387-0.002 0-0.004-0-0.006-0h0zM2.308 12.287l0.092-0.398 1.5 0.34c0.124 0.229 0.2 0.479 0.225 0.739 0.029 0.274 0.012 0.551-0.052 0.819-0.080 0.389-0.254 0.729-0.498 1.006l0.002-0.002c-0.234 0.264-0.534 0.463-0.875 0.573l-0.014 0.004c-0.186 0.059-0.399 0.094-0.621 0.094-0.167 0-0.329-0.019-0.484-0.056l0.014 0.003c-0.377-0.083-0.704-0.261-0.965-0.509l0.001 0.001c-0.258-0.239-0.449-0.546-0.545-0.893l-0.003-0.013c-0.049-0.173-0.077-0.372-0.077-0.577s0.028-0.404 0.081-0.592l-0.004 0.015c0.062-0.283 0.173-0.552 0.329-0.796 0.148-0.222 0.342-0.403 0.569-0.532l0.008-0.004 0.208 0.317c-0.395 0.245-0.675 0.643-0.76 1.109l-0.002 0.010c-0.032 0.126-0.050 0.271-0.050 0.42 0 0.173 0.025 0.34 0.070 0.499l-0.003-0.013c0.078 0.28 0.231 0.534 0.444 0.733 0.219 0.212 0.493 0.358 0.791 0.421 0.289 0.081 0.594 0.081 0.883 0 0.277-0.091 0.525-0.252 0.721-0.467 0.202-0.233 0.34-0.512 0.404-0.814 0.036-0.134 0.057-0.287 0.057-0.446 0-0.236-0.046-0.462-0.13-0.668l0.004 0.012zM5.574 8.657l-1.345 1.795 0.577 1.033-0.265 0.358-2.135-3.895 0.248-0.34 4.345 0.935-0.271 0.358zM5.193 8.565l-2.308-0.519 1.154 2.072zM5.193 4.935l0.346-0.26 2.199 2.943 1.812-1.356 0.219 0.294-2.152 1.61zM8.829 2.529l0.387-0.173 1.523 3.335 2.060-0.935 0.15 0.335-2.447 1.114zM16.434 3.856l0.087 0.364-2.781 0.652-0.923-3.935 2.701-0.629 0.081 0.358-2.308 0.537 0.329 1.396 2.031-0.479 0.087 0.358-2.037 0.473 0.346 1.46zM20.398 4.001l-0.964-1.269q-0.162 0.009-0.323 0l-1.085 0.035 0.040 1.281h-0.427l-0.133-4.039 1.535-0.006c0.050-0.005 0.109-0.008 0.168-0.008 0.396 0 0.762 0.126 1.061 0.34l-0.005-0.004c0.29 0.235 0.473 0.59 0.473 0.989 0 0.005-0 0.011-0 0.016v-0.001c0.017 0.285-0.058 0.568-0.213 0.808-0.165 0.227-0.394 0.398-0.66 0.488l-0.009 0.003 1.010 1.35zM19.994 2.102c0.183-0.168 0.298-0.409 0.298-0.677 0-0.028-0.001-0.056-0.004-0.083l0 0.004c0-0.006 0-0.013 0-0.020 0-0.289-0.132-0.547-0.339-0.718l-0.002-0.001c-0.221-0.151-0.493-0.242-0.787-0.242-0.042 0-0.083 0.002-0.124 0.005l0.005-0-1.096 0.040 0.069 2.020 1.073-0.035c0.015 0.001 0.033 0.001 0.051 0.001 0.324 0 0.622-0.111 0.858-0.297l-0.003 0.002zM23.451 2.927l-0.208 1.379-0.421-0.063 0.213-1.356-1.194-2.885 0.45 0.069 1.021 2.458 1.731-2.037 0.404 0.087zM29.158 2.685l0.502 0.652-0.219 0.173-0.502-0.669-0.317 0.756-0.242-0.104 0.323-0.756-0.831 0.11v-0.277l0.819-0.092-0.508-0.652 0.225-0.173 0.444 0.658 0.312-0.762 0.248 0.104-0.294 0.773 0.831-0.115v0.283zM31.085 7.336c-0.13-0.199-0.218-0.436-0.247-0.691l-0.001-0.007 0.34-0.15c0.026 0.229 0.1 0.449 0.219 0.646 0.129 0.221 0.297 0.417 0.496 0.577 0.199 0.191 0.456 0.321 0.743 0.363l0.007 0.001c0.017 0.002 0.038 0.003 0.058 0.003 0.194 0 0.368-0.088 0.484-0.227l0.001-0.001c0.083-0.092 0.135-0.214 0.135-0.349 0-0.015-0.001-0.031-0.002-0.046l0 0.002c-0.020-0.149-0.069-0.284-0.141-0.403l0.003 0.005c-0.124-0.2-0.24-0.367-0.363-0.529l0.011 0.015c-0.142-0.184-0.28-0.392-0.402-0.609l-0.013-0.026c-0.090-0.156-0.145-0.342-0.15-0.541l-0-0.001c0-0.213 0.080-0.42 0.225-0.577 0.124-0.149 0.286-0.263 0.471-0.327l0.007-0.002c0.096-0.029 0.206-0.045 0.32-0.045s0.224 0.017 0.328 0.047l-0.008-0.002c0.283 0.094 0.527 0.236 0.735 0.418l-0.003-0.002q0.267 0.223 0.467 0.508c0.123 0.175 0.215 0.37 0.271 0.577l-0.329 0.173c-0.062-0.207-0.149-0.386-0.258-0.55l0.005 0.007c-0.113-0.151-0.24-0.282-0.382-0.395l-0.004-0.003c-0.196-0.19-0.453-0.318-0.738-0.351l-0.006-0.001c-0.016-0.001-0.034-0.002-0.052-0.002-0.199 0-0.375 0.093-0.489 0.237l-0.001 0.001c-0.084 0.089-0.135 0.209-0.135 0.341 0 0.018 0.001 0.036 0.003 0.054l-0-0.002c0.014 0.145 0.061 0.286 0.139 0.41 0.081 0.133 0.196 0.306 0.352 0.514q0.233 0.295 0.415 0.623c0.092 0.156 0.149 0.342 0.156 0.54l0 0.002c0.001 0.213-0.080 0.42-0.225 0.577-0.125 0.151-0.289 0.265-0.477 0.327l-0.007 0.002c-0.096 0.030-0.206 0.048-0.32 0.048s-0.224-0.017-0.328-0.050l0.008 0.002c-0.285-0.094-0.531-0.236-0.741-0.418l0.003 0.002c-0.229-0.201-0.422-0.438-0.57-0.702l-0.007-0.013zM36.89 8.178l-0.814-1.154 0.3-0.213 1.875 2.677-0.3 0.213-0.814-1.154-3.012 2.106-0.242-0.352zM35.597 12.922c0.108-0.361 0.309-0.666 0.575-0.898l0.002-0.002c0.258-0.232 0.578-0.4 0.933-0.476l0.013-0.002c0.141-0.034 0.302-0.053 0.468-0.053 0.22 0 0.433 0.034 0.632 0.098l-0.015-0.004c0.351 0.118 0.648 0.317 0.881 0.575l0.002 0.002c0.24 0.275 0.413 0.615 0.488 0.99l0.002 0.014c0.046 0.167 0.072 0.359 0.072 0.557s-0.026 0.39-0.075 0.572l0.004-0.015c-0.111 0.359-0.311 0.664-0.575 0.898l-0.002 0.002c-0.377 0.339-0.878 0.546-1.428 0.546-0.226 0-0.443-0.035-0.647-0.1l0.015 0.004c-0.353-0.112-0.652-0.312-0.881-0.575l-0.002-0.002c-0.239-0.274-0.411-0.611-0.488-0.984l-0.002-0.014c-0.038-0.153-0.059-0.33-0.059-0.511 0-0.221 0.032-0.434 0.092-0.636l-0.004 0.016zM36.353 14.757c0.193 0.219 0.443 0.381 0.721 0.467 0.149 0.045 0.321 0.071 0.498 0.071 0.451 0 0.863-0.167 1.177-0.442l-0.002 0.002c0.214-0.196 0.37-0.444 0.456-0.721 0.042-0.148 0.067-0.318 0.067-0.494 0-0.46-0.167-0.881-0.444-1.205l0.002 0.003c-0.197-0.215-0.448-0.377-0.733-0.464l-0.012-0.003c-0.133-0.037-0.286-0.058-0.444-0.058s-0.311 0.021-0.456 0.061l0.012-0.003c-0.306 0.060-0.573 0.201-0.786 0.399l0.001-0.001c-0.21 0.193-0.368 0.438-0.453 0.716l-0.003 0.011c-0.037 0.134-0.059 0.288-0.059 0.447s0.021 0.313 0.062 0.459l-0.003-0.012c0.067 0.299 0.207 0.558 0.399 0.769l-0.001-0.001zM35.159 19.621l1.495-0.577c0-0.104 0.035-0.208 0.063-0.317l0.283-1.044-1.223-0.317 0.11-0.41 3.901 1.044-0.392 1.46c-0.093 0.439-0.333 0.811-0.665 1.070l-0.004 0.003c-0.198 0.139-0.445 0.223-0.711 0.223-0.138 0-0.27-0.022-0.394-0.064l0.009 0.003c-0.566-0.126-0.984-0.623-0.987-1.217v-0l-1.593 0.577zM37.092 19.782c0.18 0.323 0.52 0.537 0.91 0.537 0.199 0 0.385-0.056 0.543-0.153l-0.005 0.003c0.248-0.201 0.424-0.483 0.489-0.805l0.001-0.009 0.277-1.039-1.956-0.525-0.277 1.039c-0.048 0.135-0.076 0.29-0.076 0.452 0 0.18 0.034 0.352 0.097 0.509l-0.003-0.009zM33.087 23.337l-0.294-0.225 1.731-2.279 3.22 2.441-1.673 2.21-0.294-0.225 1.414-1.864-1.154-0.871-1.264 1.668-0.289-0.219 1.293-1.668-1.194-0.906zM31.737 27.936l-0.825 0.046v-0.277l0.825-0.006-0.444-0.687 0.225-0.144 0.439 0.692 0.358-0.773 0.248 0.133-0.392 0.727 0.825-0.046v0.283h-0.837l0.444 0.687-0.225 0.144-0.439-0.692-0.381 0.75-0.242-0.139zM24.235 27.474l0.698 0.387c0.238-0.45 0.649-0.782 1.142-0.909l0.012-0.003c0.163-0.052 0.351-0.082 0.545-0.082 0.058 0 0.115 0.003 0.172 0.008l-0.007-0.001c0.218 0.017 0.415 0.092 0.581 0.21l-0.004-0.002c0.154 0.115 0.267 0.277 0.323 0.462 0.069 0.228 0.058 0.473-0.035 0.692-0.152 0.31-0.345 0.575-0.577 0.802l-0 0c0.19 0.102 0.367 0.229 0.525 0.375 0.109 0.113 0.19 0.249 0.237 0.398 0.015 0.057 0.024 0.122 0.024 0.189 0 0.185-0.066 0.355-0.175 0.488l0.001-0.001c-0.153 0.218-0.377 0.377-0.639 0.443l-0.008 0.002c-0.231 0.088-0.485 0.088-0.716 0-0.206-0.090-0.36-0.268-0.414-0.485l-0.001-0.005c-0.023-0.071-0.037-0.153-0.037-0.238 0-0.123 0.029-0.24 0.079-0.344l-0.002 0.005c0.133-0.263 0.306-0.502 0.514-0.71l-1.391-0.773c-0.032 0.159-0.051 0.341-0.051 0.527 0 0.105 0.006 0.208 0.017 0.31l-0.001-0.013h-0.352c-0.004-0.057-0.007-0.124-0.007-0.191 0-0.29 0.045-0.57 0.127-0.833l-0.005 0.020-0.727-0.404zM25.239 28.051l1.529 0.848c0.2-0.192 0.366-0.415 0.49-0.664 0.063-0.167 0.063-0.352 0-0.519-0.055-0.204-0.205-0.364-0.4-0.431l-0.004-0.001c-0.11-0.038-0.237-0.061-0.369-0.061s-0.259 0.022-0.377 0.063l0.008-0.002c-0.401 0.108-0.724 0.382-0.897 0.742l-0.004 0.008zM27.409 30.36c0.045-0.076 0.072-0.167 0.072-0.264 0-0.058-0.010-0.114-0.027-0.166l0.001 0.004c-0.037-0.119-0.1-0.22-0.184-0.3l-0-0c-0.14-0.119-0.297-0.224-0.465-0.311l-0.014-0.006c-0.171 0.169-0.322 0.358-0.448 0.564l-0.007 0.013c-0.043 0.078-0.068 0.172-0.068 0.271 0 0.056 0.008 0.109 0.022 0.16l-0.001-0.004c0.038 0.135 0.13 0.244 0.251 0.305l0.003 0.001c0.147 0.055 0.309 0.055 0.456 0 0.161-0.044 0.294-0.14 0.385-0.269l0.001-0.002zM17.201 31.923l0.081-4.039h0.41l-0.063 3.231 1.639-2.689h0.202l1.535 2.735 0.058-3.214h0.41l-0.075 4.039h-0.352l-1.696-3.018-1.795 2.96zM15.193 27.699c0.376 0.359 0.61 0.864 0.61 1.424 0 0.204-0.031 0.401-0.089 0.586l0.004-0.014c-0.101 0.371-0.291 0.689-0.548 0.94l-0 0c-0.249 0.245-0.564 0.423-0.916 0.505l-0.013 0.003c-0.148 0.035-0.318 0.055-0.492 0.055-0.223 0-0.439-0.033-0.643-0.093l0.016 0.004c-0.379-0.094-0.706-0.277-0.971-0.526l0.001 0.001c-0.253-0.242-0.44-0.551-0.534-0.898l-0.003-0.014c-0.039-0.153-0.062-0.329-0.062-0.51 0-0.596 0.245-1.134 0.639-1.521l0-0c0.245-0.244 0.553-0.425 0.898-0.516l0.014-0.003c0.147-0.035 0.316-0.055 0.49-0.055 0.222 0 0.437 0.033 0.639 0.093l-0.016-0.004c0.382 0.099 0.711 0.288 0.976 0.543l-0.001-0.001zM13.226 27.497c-0.293 0.070-0.546 0.216-0.744 0.415l-0 0c-0.206 0.206-0.359 0.465-0.436 0.756l-0.003 0.012c-0.081 0.289-0.081 0.594 0 0.883 0.068 0.281 0.214 0.537 0.421 0.739 0.211 0.206 0.474 0.36 0.766 0.441l0.013 0.003c0.134 0.036 0.288 0.056 0.447 0.056s0.313-0.020 0.46-0.059l-0.013 0.003c0.283-0.069 0.541-0.213 0.75-0.415 0.205-0.206 0.358-0.466 0.436-0.756l0.003-0.012c0.038-0.133 0.060-0.286 0.060-0.444s-0.022-0.311-0.063-0.456l0.003 0.012c-0.078-0.291-0.227-0.541-0.427-0.738l-0-0c-0.212-0.206-0.477-0.359-0.773-0.436l-0.012-0.003c-0.133-0.038-0.286-0.060-0.444-0.060s-0.311 0.022-0.456 0.063l0.012-0.003zM8.857 24.814l0.156 1.587q0.148 0.063 0.289 0.144l0.941 0.542 0.635-1.119 0.375 0.213-2.020 3.48-1.316-0.756c-0.389-0.198-0.691-0.519-0.861-0.911l-0.005-0.012c-0.045-0.124-0.070-0.267-0.070-0.417 0-0.252 0.074-0.487 0.2-0.685l-0.003 0.005c0.134-0.253 0.346-0.456 0.606-0.577 0.151-0.064 0.327-0.102 0.512-0.102 0.113 0 0.223 0.014 0.328 0.040l-0.009-0.002-0.167-1.696zM8.2 26.638c-0.415 0.107-0.726 0.453-0.779 0.88l-0 0.005c-0.005 0.037-0.007 0.079-0.007 0.122 0 0.104 0.015 0.204 0.044 0.299l-0.002-0.007c0.135 0.299 0.369 0.541 0.664 0.687l0.929 0.537 1.010-1.731-0.929-0.537c-0.235-0.178-0.532-0.285-0.855-0.285-0.026 0-0.052 0.001-0.078 0.002l0.004-0zM5.441 22.108l0.26-0.26 1.991 2.048-2.885 2.816-1.922-1.985 0.265-0.26 1.633 1.679 0.987-0.998-1.431-1.489 0.277-0.265 1.46 1.5 1.073-1.044zM1.154 19.84l0.139-0.796 0.271 0.040-0.156 0.819 0.767-0.283 0.092 0.254-0.779 0.265 0.64 0.542-0.185 0.208-0.617-0.577-0.144 0.819-0.277-0.052 0.162-0.819-0.773 0.277-0.087-0.225 0.773-0.271-0.64-0.537 0.19-0.208z"></path>
</symbol>

<symbol id="_icon-facebook" viewBox="0 0 32 32">
<path d="M21.33 5.313h2.921v-5.088c-0.504-0.069-2.237-0.225-4.256-0.225-4.212 0-7.097 2.649-7.097 7.519v4.481h-4.648v5.688h4.648v14.312h5.699v-14.311h4.46l0.708-5.688h-5.169v-3.919c0.001-1.644 0.444-2.769 2.735-2.769z"></path>
</symbol>
<symbol id="_icon-instagram" viewBox="0 0 32 32">
<path d="M31.969 9.408c-0.075-1.7-0.35-2.869-0.744-3.882-0.406-1.075-1.032-2.038-1.851-2.838-0.8-0.813-1.769-1.444-2.832-1.844-1.019-0.394-2.182-0.669-3.882-0.744-1.713-0.081-2.257-0.1-6.601-0.1s-4.888 0.019-6.595 0.094c-1.7 0.075-2.869 0.35-3.882 0.744-1.075 0.406-2.038 1.031-2.838 1.85-0.813 0.8-1.444 1.769-1.844 2.832-0.394 1.019-0.669 2.182-0.744 3.882-0.081 1.713-0.1 2.257-0.1 6.601s0.019 4.888 0.094 6.595c0.075 1.7 0.35 2.869 0.744 3.882 0.406 1.075 1.038 2.038 1.85 2.838 0.8 0.813 1.769 1.444 2.832 1.844 1.019 0.394 2.182 0.669 3.882 0.744 1.706 0.075 2.25 0.094 6.595 0.094s4.888-0.019 6.595-0.094c1.7-0.075 2.869-0.35 3.882-0.744 2.151-0.832 3.851-2.532 4.682-4.682 0.394-1.019 0.669-2.182 0.744-3.882 0.075-1.707 0.094-2.251 0.094-6.595s-0.006-4.888-0.081-6.595zM29.087 22.473c-0.069 1.563-0.331 2.407-0.55 2.969-0.538 1.394-1.644 2.5-3.038 3.038-0.563 0.219-1.413 0.481-2.969 0.55-1.688 0.075-2.194 0.094-6.464 0.094s-4.782-0.019-6.464-0.094c-1.563-0.069-2.407-0.331-2.969-0.55-0.694-0.256-1.325-0.663-1.838-1.194-0.531-0.519-0.938-1.144-1.194-1.838-0.219-0.563-0.481-1.413-0.55-2.969-0.075-1.688-0.094-2.194-0.094-6.464s0.019-4.782 0.094-6.464c0.069-1.563 0.331-2.407 0.55-2.969 0.256-0.694 0.663-1.325 1.2-1.838 0.519-0.531 1.144-0.938 1.838-1.194 0.563-0.219 1.413-0.481 2.969-0.55 1.688-0.075 2.194-0.094 6.464-0.094 4.276 0 4.782 0.019 6.464 0.094 1.563 0.069 2.407 0.331 2.969 0.55 0.694 0.256 1.325 0.662 1.838 1.194 0.531 0.519 0.938 1.144 1.194 1.838 0.219 0.563 0.481 1.413 0.55 2.969 0.075 1.688 0.094 2.194 0.094 6.464s-0.019 4.77-0.094 6.458z"></path>
<path d="M16.059 7.783c-4.538 0-8.22 3.682-8.22 8.22s3.682 8.22 8.22 8.22c4.539 0 8.22-3.682 8.22-8.22s-3.682-8.22-8.22-8.22zM16.059 21.336c-2.944 0-5.332-2.388-5.332-5.332s2.388-5.332 5.332-5.332c2.944 0 5.332 2.388 5.332 5.332s-2.388 5.332-5.332 5.332z"></path>
<path d="M26.524 7.458c0 1.060-0.859 1.919-1.919 1.919s-1.919-0.859-1.919-1.919c0-1.060 0.859-1.919 1.919-1.919s1.919 0.859 1.919 1.919z"></path>
</symbol>
<symbol id="_icon-linkedin" viewBox="0 0 32 32">
<path d="M31.992 32v-0.001h0.008v-11.736c0-5.741-1.236-10.164-7.948-10.164-3.227 0-5.392 1.771-6.276 3.449h-0.093v-2.913h-6.364v21.364h6.627v-10.579c0-2.785 0.528-5.479 3.977-5.479 3.399 0 3.449 3.179 3.449 5.657v10.401h6.62z"></path>
<path d="M0.528 10.636h6.635v21.364h-6.635v-21.364z"></path>
<path d="M3.843 0c-2.121 0-3.843 1.721-3.843 3.843s1.721 3.879 3.843 3.879c2.121 0 3.843-1.757 3.843-3.879-0.001-2.121-1.723-3.843-3.843-3.843v0z"></path>
</symbol>
<symbol id="_icon-twitter" viewBox="0 0 32 32">
<path d="M32 6.078c-1.19 0.522-2.458 0.868-3.78 1.036 1.36-0.812 2.398-2.088 2.886-3.626-1.268 0.756-2.668 1.29-4.16 1.588-1.204-1.282-2.92-2.076-4.792-2.076-3.632 0-6.556 2.948-6.556 6.562 0 0.52 0.044 1.020 0.152 1.496-5.454-0.266-10.28-2.88-13.522-6.862-0.566 0.982-0.898 2.106-0.898 3.316 0 2.272 1.17 4.286 2.914 5.452-1.054-0.020-2.088-0.326-2.964-0.808 0 0.020 0 0.046 0 0.072 0 3.188 2.274 5.836 5.256 6.446-0.534 0.146-1.116 0.216-1.72 0.216-0.42 0-0.844-0.024-1.242-0.112 0.85 2.598 3.262 4.508 6.13 4.57-2.232 1.746-5.066 2.798-8.134 2.798-0.538 0-1.054-0.024-1.57-0.090 2.906 1.874 6.35 2.944 10.064 2.944 12.072 0 18.672-10 18.672-18.668 0-0.29-0.010-0.57-0.024-0.848 1.302-0.924 2.396-2.078 3.288-3.406z"></path>
</symbol>
<symbol id="_icon-pin" viewBox="0 0 32 32">
<path fill="none" stroke="#9da4bd" style="stroke: var(--color1, #9da4bd)" stroke-linejoin="round" stroke-linecap="round" stroke-miterlimit="4" stroke-width="1.3333" d="M16 28c0 0-10.667-6.545-10.667-14.182 0-5.422 4.776-9.818 10.667-9.818s10.667 4.396 10.667 9.818c0 7.636-10.667 14.182-10.667 14.182z"></path>
<path fill="none" stroke="#9da4bd" style="stroke: var(--color1, #9da4bd)" stroke-linejoin="round" stroke-linecap="round" stroke-miterlimit="4" stroke-width="1.3333" d="M20 14.667c0-2.209-1.791-4-4-4s-4 1.791-4 4c0 2.209 1.791 4 4 4s4-1.791 4-4z"></path>
</symbol>
<symbol id="_icon-phone" viewBox="0 0 32 32">
<path fill="none" stroke="#9da4bd" style="stroke: var(--color1, #9da4bd)" stroke-linejoin="round" stroke-linecap="round" stroke-miterlimit="4" stroke-width="1.3333" d="M26.666 24.555c0.002 0.604-0.25 1.181-0.695 1.589s-1.042 0.61-1.643 0.556c-3.301-0.359-6.471-1.487-9.257-3.293-2.592-1.647-4.789-3.844-6.436-6.436-1.813-2.798-2.941-5.984-3.293-9.3-0.054-0.6 0.146-1.195 0.552-1.639s0.98-0.698 1.582-0.699h3.218c1.077-0.011 1.995 0.779 2.145 1.845 0.136 1.030 0.388 2.041 0.751 3.014 0.295 0.784 0.106 1.668-0.483 2.263l-1.362 1.362c1.527 2.685 3.75 4.909 6.436 6.436l1.362-1.362c0.595-0.589 1.479-0.777 2.263-0.483 0.973 0.363 1.984 0.615 3.014 0.751 1.079 0.152 1.872 1.088 1.845 2.177v3.218z"></path>
</symbol>
<symbol id="_icon-mail" viewBox="0 0 32 32">
<path fill="none" stroke="#9da4bd" style="stroke: var(--color1, #9da4bd)" stroke-linejoin="round" stroke-linecap="round" stroke-miterlimit="4" stroke-width="1.3333" d="M25.6 6.667c1.32 0 2.4 1.050 2.4 2.333v14c0 1.283-1.080 2.333-2.4 2.333h-19.2c-1.32 0-2.4-1.050-2.4-2.333v-14c0-1.283 1.080-2.333 2.4-2.333h19.2z"></path>
<path fill="none" stroke="#9da4bd" style="stroke: var(--color1, #9da4bd)" stroke-linejoin="round" stroke-linecap="round" stroke-miterlimit="4" stroke-width="1.3333" d="M26.667 9.333l-10.667 8-10.667-8"></path>
</symbol>

</defs>
</svg>